# xmcd
#
# Track frame offsets:
# 150
# 14075
# 23556
# 34149
# 43235
# 52857
# 63850
# 76397
# 85526
# 99978
#
# Disc length: 1497 seconds
#
#
# Revision: 0
# Processed by: cddbd v1.5.2PL0 Copyright (c) Steve Scherf et al.
# Submitted via: FreeRIP 2.943 
#
DISCID=6d05d70a
DTITLE=lucika - unnerving depth of black
DYEAR=2005
DGENRE=Black Metal
TTITLE0=chet wicker
TTITLE1=mouse
TTITLE2=carnivorous
TTITLE3=pope of nothing
TTITLE4=smallman
TTITLE5=shroud
TTITLE6=6th and blair
TTITLE7=june 18th riot
TTITLE8=unnerving depth of black
TTITLE9=my certain death
EXTD=zz
EXTT0=
EXTT1=
EXTT2=
EXTT3=
EXTT4=
EXTT5=
EXTT6=
EXTT7=
EXTT8=
EXTT9=
PLAYORDER=
